<?xml version="1.0" standalone="no"?>
<!DOCTYPE svg PUBLIC "-//W3C//DTD SVG 20010904//EN"
 "http://www.w3.org/TR/2001/REC-SVG-20010904/DTD/svg10.dtd">
<svg version="1.0" xmlns="http://www.w3.org/2000/svg"
 width="1300.000000pt" height="1300.000000pt" viewBox="0 0 1300.000000 1300.000000"
 preserveAspectRatio="xMidYMid meet">
<metadata>
Created by potrace 1.11, written by Peter Selinger 2001-2013
</metadata>
<g transform="translate(0.000000,1300.000000) scale(0.100000,-0.100000)"
fill="#000000" stroke="none">
<path d="M2562 11198 l-1072 -1071 -386 385 -386 386 -349 -348 c-192 -192
-349 -353 -349 -358 0 -12 1457 -1467 1470 -1467 8 0 1133 1121 2674 2664
l179 179 -351 351 c-193 193 -352 351 -354 351 -3 0 -487 -482 -1076 -1072z"/>
<path d="M5990 10420 l0 -500 3500 0 3500 0 0 500 0 500 -3500 0 -3500 0 0
-500z"/>
<path d="M2562 7198 l-1072 -1071 -386 385 -386 386 -353 -353 -354 -352 740
-739 739 -740 1422 1424 c783 782 1425 1425 1427 1427 3 4 -694 705 -702 705
-2 0 -486 -482 -1075 -1072z"/>
<path d="M5990 6420 l0 -500 3500 0 3500 0 0 500 0 500 -3500 0 -3500 0 0
-500z"/>
<path d="M2561 3198 l-1071 -1071 -386 385 -386 386 -353 -353 -353 -352 733
-734 c404 -403 738 -735 742 -736 12 -4 2849 2836 2845 2848 -3 11 -687 699
-695 699 -2 0 -486 -482 -1076 -1072z"/>
<path d="M5990 2420 l0 -500 3500 0 3500 0 0 500 0 500 -3500 0 -3500 0 0
-500z"/>
</g>
</svg>
